<svg width="493" height="480" viewBox="0 0 493 480" fill="none" xmlns="http://www.w3.org/2000/svg">
<path fill-rule="evenodd" clip-rule="evenodd" d="M279.759 262.577C279.262 262.186 279.39 260.989 279.538 260.183C280.475 255.071 284.994 251.648 288.98 248.455C292.965 245.261 297.089 240.971 296.675 235.786C296.116 228.781 299.344 222.138 301.315 215.409C303.286 208.68 303.635 200.39 298.612 195.634C296.872 193.986 294.653 192.953 292.9 191.319C291.146 189.686 289.886 187.035 290.883 184.826C290.034 185.335 289.184 185.844 288.335 186.354C288.098 182.938 284.217 181.418 281.298 179.782C276.29 176.975 272.628 171.306 273.03 165.447C273.432 159.588 278.542 154.192 284.233 154.522C286.677 154.664 289.815 155.437 291.029 153.247C295.513 145.158 307.143 144.226 312.424 136.665C313.575 135.017 319.127 130.098 318.579 133.577C317.361 141.312 324.137 139.068 326.809 142.306C338.459 156.42 339.357 177.808 337.255 198.077C332.759 241.449 305.951 283.183 279.759 262.577Z" fill="white"/>
<path fill-rule="evenodd" clip-rule="evenodd" d="M311.382 146.22C314.095 143.302 318.049 141.577 322.033 141.577C328.617 144.99 335.129 149.607 341.569 155.428C345.607 153.83 348.453 153.505 350.106 154.454C352.585 155.877 354.104 158.577 354.823 161.344C357.128 170.218 352.225 179.399 346.193 186.302C343.562 189.312 340.63 192.188 339.019 195.848C337.408 199.507 337.48 204.28 340.412 206.998C347.743 213.792 350.189 224.511 349.78 234.499C349.371 244.487 346.523 254.195 344.929 264.064C343.159 275.016 342.938 286.218 344.274 297.232C344.687 300.633 345.281 304.114 347.057 307.044C348.833 309.974 352.048 312.263 355.464 312.011C354.254 313.742 351.338 313.862 349.989 312.236C351.317 313.617 352.645 314.997 353.973 316.378C352.366 316.041 350.76 315.704 349.154 315.368C362.582 323.002 376.487 329.796 390.762 335.695C389.928 332.89 386.987 331.364 384.326 330.147C376.895 326.749 369.464 323.35 362.033 319.952C373.196 320.964 383.976 325.813 392.141 333.495C401.977 342.749 417.897 342.231 428.563 350.514C430.85 352.291 432.908 354.558 433.676 357.351C434.754 361.274 433.028 365.565 430.186 368.476C427.344 371.388 423.54 373.146 419.735 374.588C408.368 378.894 396.145 380.926 383.997 380.528C382.966 378.716 383.996 376.303 385.674 375.065C387.351 373.828 389.488 373.449 391.525 373.011C400.194 371.146 408.495 367.585 415.819 362.587C417.465 361.464 419.251 359.448 418.195 357.759C417.803 357.131 417.106 356.774 416.438 356.455C404.936 350.964 392.086 348.324 379.351 348.835C383.111 348.156 386.87 347.476 390.629 346.797C380.693 340.869 370.248 335.796 359.446 331.652C356.088 330.363 352 329.255 349.145 331.444C342.178 336.787 335.21 342.13 328.243 347.473C337.227 347.631 346.168 349.841 354.192 353.886C352.356 357.899 348.23 360.762 343.829 361.076C345.911 358.94 347.994 356.805 350.076 354.669C335.245 345.475 314.093 355.084 299.241 345.924C292.616 341.838 288.225 334.475 281.043 331.475C274.193 328.613 266.389 330.358 259.181 332.14C254.454 333.309 249.488 334.607 246 338.005C246.097 334.586 249.346 332.112 252.541 330.894C255.736 329.676 259.283 329.113 261.972 327.001C264.701 324.858 266.095 321.472 268.246 318.751C270.398 316.03 274.211 313.884 277.251 315.555C276.314 308.329 282.453 302.436 286.614 296.456C291.354 289.645 293.887 281.323 293.746 273.026C288.466 275.833 286.091 283.068 288.682 288.459C289.832 290.853 287.541 293.874 284.892 294.063C282.243 294.252 279.812 292.302 278.615 289.931C277.417 287.56 277.199 284.831 277.02 282.181C276.767 278.436 276.557 274.613 277.521 270.986C279.348 264.113 285.08 259.002 291.028 255.107C296.976 251.212 303.507 248.026 308.494 242.957C313.995 237.366 317.254 229.628 317.413 221.785C319.707 232.236 314.535 145.507 311.382 146.22ZM287.189 290.025C287.245 287.864 286.574 285.69 285.31 283.937C284.869 286.108 285.602 288.48 287.189 290.025Z" fill="white"/>
<path fill-rule="evenodd" clip-rule="evenodd" d="M212.72 286.616C208.387 289.66 203.902 292.87 201.381 297.518C198.859 302.166 198.976 308.693 203.09 312.027C213.158 320.185 209.938 336.429 215.948 347.89C219.246 354.18 225.594 360.138 223.813 367.009C222.418 372.393 216.627 375.205 211.467 377.325C209.045 378.32 206.482 379.336 203.884 378.998C201.285 378.659 198.739 376.426 199.059 373.835C199.633 369.199 207.777 368.36 207.922 363.692C207.963 362.381 207.291 361.165 206.639 360.026C202.231 352.324 197.823 344.622 193.415 336.92C188.259 347.685 186.189 359.896 187.51 371.75C187.925 375.47 185.141 378.955 181.757 380.58C178.373 382.206 174.496 382.379 170.742 382.523C167.666 382.64 164.393 382.711 161.752 381.136C159.111 379.561 157.631 375.678 159.619 373.337C161.407 371.23 164.687 371.513 167.297 370.588C174.227 368.131 174.524 358.608 173.538 351.345C171.635 337.313 169.731 323.281 167.827 309.249C166.863 302.143 165.786 294.737 161.671 288.854C147.52 268.62 166.035 237.763 152.655 217.015C148.547 210.645 144.416 204.034 143.04 196.588C141.664 189.142 143.659 180.58 149.833 176.165C154.466 172.853 155.023 166.359 155.657 160.712C156.818 150.37 159.655 140.216 164.025 130.764C154.059 123.521 141.979 119.203 129.665 118.482C130.046 120.724 130.859 122.894 132.045 124.837C124.957 122.184 119.495 115.614 118.197 108.182C117.062 110.808 115.928 113.435 114.793 116.062C105.035 96.1791 112.058 72.5589 119.202 51.6022C121.282 45.5002 123.362 39.3982 125.442 33.2961C127.944 25.9542 131.523 17.5724 139.064 15.6572C143.705 14.4784 149.961 18.9346 147.512 23.0358C141.426 21.5114 144.726 27.6363 147.019 25.0446C152.22 19.1662 156.461 12.1806 162.686 7.3611C174.555 -1.82742 192.214 -1.24219 205.099 6.4691C217.983 14.1804 226.425 27.8564 230.604 42.2414C231.209 44.3234 231.721 46.6236 230.825 48.5986C229.929 50.5736 226.996 51.6786 225.514 50.0919C223.45 47.8814 220.583 52.0602 220.718 55.0766C221.413 70.5369 231.277 83.9387 235.866 98.7238C240.341 113.143 239.704 128.577 239.025 143.655C238.079 164.623 235.465 222.635 234.616 230.633C233.016 245.702 229.689 260.654 229.892 275.805C230.154 295.274 236.224 314.157 242.624 332.554C245.287 340.209 248.127 348.033 253.426 354.179C258.724 360.326 267.085 364.519 275 362.661C269.385 368.274 259.795 368.077 252.825 364.259C245.854 360.442 240.947 353.811 236.489 347.249C233.644 343.061 225.909 351.393 222.55 347.603C226.683 346.739 230.591 344.83 233.807 342.104C226.778 323.608 219.749 305.112 212.72 286.616ZM176.623 66.614C175.903 65.8864 174.781 65.165 173.943 65.7541C174.866 66.6847 174.592 68.482 173.434 69.0979C172.055 68.5953 172.546 66.5591 172.16 65.1483C171.664 63.3333 169.56 62.5445 167.722 62.1158C158.286 59.9155 147.313 59.5405 141.043 52.1782C140.46 51.493 139.909 50.7396 139.118 50.3082C137.501 49.4264 135.368 50.2432 134.22 51.6802C133.072 53.1173 132.686 55.0026 132.418 56.8198C131.062 66.0227 131.851 75.5328 134.706 84.3886C135.221 85.9869 135.831 87.6111 136.979 88.8397C140.118 92.1982 145.546 91.2548 150.086 90.4841C154.311 89.7669 158.602 89.433 162.887 89.4879C164.874 89.5134 166.831 89.0615 168.766 88.6124C173.878 87.4253 178.991 86.2383 184.104 85.0512C184.168 78.2483 181.414 71.4613 176.623 66.614Z" fill="white"/>
<path fill-rule="evenodd" clip-rule="evenodd" d="M364.796 465.632L376.962 467.432C379.188 467.761 381.647 468.221 383 469.989C382.377 470.533 381.431 470.448 380.606 470.329C375.899 469.655 371.192 468.98 366.485 468.306L372.085 474.74C373.05 475.848 374.089 477.006 375.504 477.447C376.744 477.833 378.522 477.955 378.67 479.224C376.965 479.939 374.939 479.498 373.367 478.532C371.795 477.566 370.585 476.138 369.403 474.734C367.503 472.479 365.604 470.223 363.704 467.967C363.207 467.377 362.704 466.503 363.211 465.922C363.577 465.503 364.239 465.55 364.796 465.632ZM429.947 415.577C430.322 417.199 428.644 418.454 427.263 419.33C416.193 426.354 410.718 439.617 405.906 452.041C405.534 453.002 405.437 454.51 406.432 454.665C408.36 451.035 412.143 448.518 416.155 448.195C413.11 450.318 411.891 454.355 411.7 458.132C411.509 461.909 412.128 465.705 411.782 469.47C409.889 469.286 409.401 466.703 409.424 464.749C409.47 460.882 409.515 457.014 409.561 453.147C402.568 457.454 400.888 466.926 399.902 475.243C399.513 475.834 398.526 475.579 398.183 474.959C397.84 474.338 397.943 473.569 398.061 472.866C400.923 455.938 407.432 439.671 416.986 425.571C407.756 430.518 399.877 438.096 394.464 447.236C393.078 444.652 395.054 441.568 397.011 439.409C406.23 429.24 417.524 421.068 429.947 415.577ZM344.082 406.577C348.957 409.966 353.832 413.355 358.707 416.744C366.438 422.119 374.247 427.562 380.515 434.587C380.084 428.168 381.696 421.628 385.062 416.145C385.46 415.496 386.159 414.771 386.853 415.085C387.343 415.307 387.484 415.924 387.564 416.456C388.945 425.669 390.326 434.882 391.707 444.095C387.738 436.717 385.795 428.263 386.142 419.894C383.726 423.777 381.746 428.258 382.357 432.789C383.848 443.845 399.384 449.21 400 460.35C386.458 443.667 372.368 426.61 353.483 416.347C362.276 428.832 372.315 440.441 383.402 450.945C386.531 453.909 390.006 457.391 389.783 461.693C382.408 453.027 369.818 449.187 358.857 452.26C365.155 454.599 371.292 457.368 377.212 460.543C380.686 462.405 384.381 464.776 385.418 468.577C375.423 461.099 363.832 455.761 351.649 453.026C360.872 447.654 372.9 447.456 382.294 452.524C368.103 439.734 356.484 424.402 344.957 409.17C344.383 408.411 343.776 407.478 344.082 406.577ZM285.051 355.585C307.841 359.954 330.243 366.341 351.908 374.647C354.476 375.631 357.113 376.694 359.048 378.645C361.358 380.975 362.367 384.257 363.297 387.401C367.198 400.596 371.099 413.792 375 426.987C367.984 413.212 362.968 398.423 360.157 383.226C342.883 390.114 323.632 389.14 305.039 388.598C276.392 387.762 247.707 388.202 219.098 389.917C221.009 390.345 222.92 390.773 224.831 391.2C220.468 392.661 215.754 392.541 211.155 392.379C176.446 391.153 141.791 388.385 107.327 384.087C99.98 383.171 92.2569 382.03 86.4206 377.48L70.6328 424.334C69.732 427.008 66.7486 430.244 64.8192 428.183C62.5544 425.765 58.6368 428.284 56.3986 430.727C47.8937 440.011 39.3889 449.294 30.884 458.577C35.8672 449.956 42.1659 442.094 49.4957 435.347C41.3865 435.201 33.2868 438.826 28 444.967C30.0303 432.685 42.6778 423.164 55.0623 424.594C46.8034 425.733 39.0264 430.056 33.7066 436.466C42.6833 435.299 51.3317 431.705 58.4862 426.167C61.0639 424.172 65.0855 424.355 67.4703 426.577C72.4446 411.708 77.4189 396.84 82.3932 381.972C83.1137 379.818 83.7159 377.12 82.0794 375.544C110.073 366.277 139.485 361.298 168.973 360.833C145.534 364.472 122.095 368.112 98.6552 371.751C95.0508 372.31 90.7056 373.514 89.8564 377.056C93.8997 378.082 97.9434 379.107 102.01 380.036C164.243 394.252 229.094 385.473 292.931 386.242C314.997 386.507 337.624 387.848 358.586 380.961C326.897 366.277 292.522 357.393 257.677 354.882C266.56 352.448 276.004 353.851 285.051 355.585ZM21.6855 369.304C31.7392 371.705 40.7777 377.086 49.6379 382.392C56.1842 386.312 63.4776 391.406 64.1148 398.922L64.1324 399.185L63.9493 398.977C56.9248 391.074 48.6204 384.301 39.4521 379.007C45.7525 386.117 52.0528 393.227 58.3531 400.336C59.9823 402.175 61.6755 404.484 62.115 406.773C62.2021 406.667 62.3379 406.597 62.493 406.61L62.4448 406.577C62.9062 406.699 63.1459 407.217 62.9047 407.57C62.6575 407.599 62.3845 407.542 62.2013 407.407C62.2871 408.373 62.1229 409.33 61.6103 410.236C59.413 406.67 56.6495 403.45 53.454 400.734C55.9816 406.188 58.5092 411.643 61.0368 417.098C58.4658 416.246 56.2022 414.503 54.7275 412.239C54.3905 414.118 55.2239 416.157 56.7832 417.267C54.2095 418.559 51.2985 419.177 48.4195 419.043C49.5792 419.883 50.7389 420.723 51.8987 421.563L27.8806 422.577C28.6197 421.284 29.6438 420.154 30.8595 419.29C12.1359 417.283 -1.54937 401.616 6.84002 407.276C20.5687 416.537 38.1646 419.905 54.3618 416.372C45.3962 413.761 36.9712 409.324 29.7581 403.413C34.8719 402.156 40.5384 403.39 44.6702 406.639L44.9684 406.879L33.8021 391.346C30.0795 386.168 26.357 380.989 22.6344 375.811C33.6949 387.307 44.7554 398.803 55.8158 410.299C49.9666 393.106 37.5668 378.212 21.6855 369.304ZM46.5685 419.188L46.4547 419.316C46.0898 419.048 45.7245 419.803 46.0501 420.118C46.4535 420.246 46.9228 420.138 47.229 419.847C47.0088 419.627 46.7887 419.407 46.5685 419.188ZM449.369 367.61C457.847 369.452 466.325 371.294 474.803 373.136C477.403 373.7 480.691 375.215 480.255 377.874C480.078 378.958 479.269 379.811 478.472 380.556C475.58 383.261 472.31 385.55 468.791 387.331L477.633 389.547C479.978 390.135 482.444 390.79 484.163 392.51C485.882 394.23 486.447 397.388 484.684 399.062C487.209 403.441 489.561 407.922 491.733 412.491C492.812 414.76 493.765 417.714 492.093 419.577C489.217 413.048 486.34 406.519 483.464 399.991C479.686 402.308 475.064 403.173 470.719 402.376C471.932 400.708 474.173 400.265 476.205 400.041C478.237 399.818 480.45 399.614 481.938 398.194C483.426 396.773 483.346 393.659 481.373 393.119C475.838 391.604 470.304 390.09 464.769 388.575C468.9 384.772 473.313 381.285 477.96 378.153C478.2 376.923 476.714 376.15 475.519 375.827C462.538 372.319 449.326 369.688 436 367.957C439.997 365.732 444.91 366.642 449.369 367.61ZM20.1516 403.588C20.7192 403.68 21.169 404.13 21.5927 404.546C25.1714 408.057 29.6258 410.529 34.3631 411.633C36.7314 412.185 39.3779 412.519 41 414.453C32.979 415.302 24.6605 411.758 19.3651 405.233C19.2103 405.042 19.0523 404.837 19.0103 404.588C18.9081 403.982 19.5841 403.497 20.1516 403.588ZM36.5189 405.86C40.5848 409.072 45.3492 411.402 50.3871 412.643C46.3691 409.362 41.5824 407.021 36.5189 405.86ZM45.7528 403.462C47.2568 407.288 50.4261 410.431 54.2739 411.912C51.9422 408.641 49.0469 405.77 45.7528 403.462ZM123.372 189.322C117.738 192.065 112.579 195.773 108.19 200.234C98.3214 210.267 85.5887 217.475 71.8841 220.785L106.58 201.15C106.029 197.338 100.291 197.905 96.8408 199.644C90.8595 202.659 85.0342 206.02 79.6755 210.032C76.4953 212.413 73.4853 215.02 70.6758 217.825C59.6868 228.8 51.9535 242.635 46.1237 257.006C37.7462 277.657 33.0282 300.088 35.038 322.271C37.0478 344.454 46.1672 366.363 62.3666 381.717C62.9346 379.97 63.5025 378.222 64.0704 376.475C66.5661 377.715 69.5239 378.005 72.2144 377.273C68.987 375.402 65.5922 373.36 63.8849 370.052C62.1777 366.745 63.0827 361.825 66.6045 360.589C63.1711 357.52 60.8117 353.281 60.0175 348.755C63.8917 348.043 67.7658 347.331 71.6399 346.619C67.8409 337.934 68.6006 327.413 73.6086 319.358C74.3939 318.095 75.6609 316.736 77.1074 317.099C79.4172 317.679 80.0929 322.147 82.2975 321.248L90.91 309.066L99.2494 297.27L99.1121 297.473C95.8179 302.461 95.6877 309.378 98.863 314.456C103.289 309.788 109.308 306.646 115.68 305.679C116.203 308.574 116.726 311.47 117.249 314.366C119.595 312.423 122.118 310.401 125.144 310.011C128.17 309.621 131.716 311.653 131.73 314.692C131.742 317.194 129.545 319.974 131.152 321.897C133.472 320.403 135.967 318.856 138.729 318.865C141.491 318.874 144.421 321.189 143.969 323.904C143.28 328.045 142.591 332.186 141.901 336.327C146.585 334.8 152.97 333.882 155.326 338.193C157.02 341.295 155.256 345.169 152.961 347.861C150.666 350.552 147.737 352.917 146.64 356.275C145.118 353.148 147.982 349.786 150.393 347.275C152.805 344.765 154.971 340.575 152.462 338.16C149.115 334.938 143.352 340.169 139.063 338.368C139.998 332.796 140.933 327.223 141.868 321.651C137.015 321.633 132.164 323.045 128.084 325.663C127.702 321.26 127.97 316.803 128.877 312.477C124.133 313.471 119.468 314.843 114.942 316.573C113.89 313.78 113.453 310.759 113.668 307.784L97.8868 316.978C97.4752 315.42 96.4033 314.047 94.9889 313.265C96.4237 321.555 97.8585 329.845 99.2933 338.135C94.8076 329.955 92.7167 320.49 93.3409 311.19C88.4305 314.327 84.8957 319.526 83.7925 325.232C80.6693 324.519 77.9129 322.353 76.4905 319.494C70.7488 327.543 69.9973 338.842 74.6228 347.576C70.8756 349.206 66.9016 350.319 62.8502 350.872L70.0519 362.256C68.1714 362.501 66.3792 363.375 65.0319 364.705C66.3971 370.869 71.5163 376.049 77.6833 377.506C74.7945 379.31 71.3453 380.21 67.9395 380.048C72.1723 381.271 76.1582 383.335 79.5939 386.085C74.7139 385.309 69.9888 383.578 65.7667 381.021C67.8808 385.481 71.7325 389.096 76.3279 390.935C73.5859 391.044 70.8174 390.398 68.409 389.088C71.033 392.563 72.3586 396.988 72.0753 401.327C70.2176 397.687 68.3598 394.047 66.5021 390.407C66.2984 394.014 66.0946 397.622 65.8909 401.229C65.4671 400.722 65.0381 400.219 64.6041 399.721L64.1704 399.228L64.2709 398.989C65.8857 394.931 64.6516 390.164 62.2526 386.485C59.792 382.711 56.2505 379.793 52.9668 376.702C39.0074 363.563 29.2284 346.726 19.6495 330.146C16.0455 323.907 12.4415 317.669 8.83745 311.43C3.99826 303.054 -1.01574 293.538 1.44189 284.189C1.79332 282.852 2.34931 281.48 3.4663 280.66C1.73138 282.624 3.04681 285.751 4.82878 287.673C6.61075 289.595 8.93733 291.366 9.31096 293.955C13.3257 321.777 30.6224 345.641 47.3862 368.252C26.6852 332.966 30.0524 287.535 46.8062 250.229C55.9208 229.933 69.6648 210.465 89.8711 201.016C94.3707 198.911 99.1015 197.346 103.819 195.787C110.337 193.632 116.854 191.477 123.372 189.322ZM383.902 386.348C384.466 386.48 385.129 386.735 385.234 387.317C385.323 387.809 384.95 388.252 384.594 388.594C382.765 390.347 380.583 391.713 378.223 392.581C377.479 392.855 377.501 394.05 378.09 394.588C378.68 395.126 379.539 395.185 380.329 395.218C409.553 396.412 438.776 397.607 468 398.802C467.716 400.311 465.758 400.616 464.254 400.573C436.566 399.785 408.886 398.736 381.217 397.428C378.353 397.292 374.471 395.935 375.027 393.064C375.555 390.338 379.424 390.305 381.51 388.52L369 386.745C373.829 385.337 379.008 385.199 383.902 386.348ZM214.245 390.263L214.41 390.377C215.201 390.923 216.385 390.795 217.041 390.093C216.204 389.546 215.01 389.618 214.245 390.263ZM205.099 6.4691C217.983 14.1804 226.425 27.8564 230.604 42.2414C231.209 44.3234 231.721 46.6236 230.825 48.5986C229.953 50.5203 227.153 51.6182 225.638 50.2147L225.514 50.0919C223.45 47.8814 220.582 52.0602 220.718 55.0766C221.413 70.5369 231.277 83.9387 235.866 98.7238C240.341 113.143 239.704 128.577 239.025 143.655C238.079 164.623 237.134 185.591 236.189 206.559C235.827 214.594 235.465 222.635 234.615 230.633C233.016 245.702 229.689 260.654 229.892 275.805C230.154 295.274 236.224 314.157 242.624 332.554C245.287 340.209 248.127 348.033 253.426 354.179C258.724 360.326 267.085 364.519 275 362.661C269.385 368.274 259.795 368.077 252.825 364.259C245.854 360.442 240.947 353.811 236.489 347.249C233.644 343.061 225.909 351.393 222.55 347.603C226.683 346.739 230.591 344.83 233.807 342.104C226.778 323.608 219.749 305.112 212.72 286.616C208.387 289.66 203.902 292.87 201.381 297.518C198.859 302.166 198.976 308.693 203.09 312.027C213.158 320.185 209.938 336.429 215.948 347.89C219.246 354.18 225.594 360.138 223.813 367.009C222.418 372.393 216.627 375.205 211.467 377.325C209.045 378.32 206.482 379.336 203.884 378.998C201.285 378.659 198.739 376.426 199.059 373.835C199.633 369.199 207.777 368.36 207.922 363.692C207.963 362.381 207.291 361.165 206.639 360.026C202.231 352.324 197.823 344.622 193.415 336.92C188.259 347.685 186.189 359.896 187.51 371.75C187.925 375.47 185.141 378.955 181.757 380.58C178.373 382.206 174.496 382.379 170.742 382.523C167.666 382.64 164.393 382.711 161.752 381.136C159.111 379.561 157.631 375.678 159.619 373.337C161.407 371.23 164.687 371.513 167.297 370.588C174.227 368.131 174.524 358.608 173.538 351.345L167.827 309.249C166.863 302.143 165.786 294.737 161.671 288.854C147.52 268.62 166.035 237.763 152.654 217.015C148.547 210.645 144.416 204.034 143.04 196.588C141.664 189.142 143.659 180.58 149.833 176.165C154.466 172.853 155.023 166.359 155.657 160.712C156.818 150.37 159.655 140.216 164.025 130.764C154.059 123.521 141.979 119.203 129.665 118.482C130.046 120.724 130.859 122.894 132.045 124.837C124.957 122.184 119.495 115.614 118.197 108.182C117.062 110.808 115.928 113.435 114.793 116.062C105.035 96.1791 112.058 72.5589 119.202 51.6022C121.282 45.5002 123.362 39.3982 125.442 33.2961C127.944 25.9542 131.523 17.5724 139.064 15.6572C143.705 14.4784 149.961 18.9346 147.512 23.0358C141.425 21.5114 134.946 24.808 130.931 29.6141C126.917 34.4203 124.861 40.5095 122.888 46.4454C116.272 66.3568 109.585 87.5702 114.59 107.943C115.352 106.526 116.805 105.498 118.399 105.248C120.044 109.861 122.571 114.161 125.803 117.848C132.637 115.342 140.178 114.782 147.31 116.25C146.767 116.917 146.223 117.585 145.68 118.252C151.346 122.105 157.908 124.64 164.699 125.601C168.351 119.424 172.002 113.247 175.654 107.071L176.326 105.931C179.575 100.409 182.739 94.703 183.756 88.4022C172.653 91.1764 161.287 92.9052 149.86 93.5579C144.879 93.8425 139.338 93.7296 135.668 90.3621C133.438 88.316 132.281 85.3732 131.43 82.4743C128.355 72.0008 128.4 60.6385 131.56 50.1899C127.068 49.9225 125.804 43.2707 128.41 39.6163C131.016 35.9618 135.55 34.3282 139.328 31.8935C148.866 25.7468 153.716 14.3054 162.686 7.3611C174.555 -1.82742 192.214 -1.24219 205.099 6.4691ZM322.033 141.577C331.909 146.696 340.771 153.764 347.959 162.257C348.329 166.837 349.055 171.388 350.13 175.856C351.603 171.563 353.095 167 352.113 162.569C351.131 158.139 346.632 154.161 342.29 155.477C344.096 153.261 347.627 153.031 350.106 154.454C352.585 155.877 354.104 158.577 354.823 161.344C357.128 170.218 352.225 179.399 346.193 186.302C343.562 189.312 340.63 192.188 339.019 195.848C337.408 199.507 337.48 204.28 340.412 206.998C347.743 213.792 350.189 224.511 349.78 234.499C349.371 244.487 346.523 254.195 344.929 264.064C343.159 275.016 342.938 286.218 344.274 297.232C344.687 300.633 345.281 304.114 347.057 307.044C348.833 309.974 352.048 312.263 355.464 312.011C354.368 313.58 351.869 313.826 350.407 312.648L350.278 312.536L351.981 314.307C352.645 314.997 353.309 315.687 353.973 316.378C352.366 316.041 350.76 315.704 349.154 315.368C362.582 323.002 376.487 329.796 390.762 335.695C389.928 332.89 386.987 331.364 384.326 330.147C376.895 326.749 369.464 323.35 362.033 319.952C373.196 320.964 383.976 325.813 392.141 333.495C401.977 342.749 417.897 342.231 428.563 350.514C430.85 352.291 432.908 354.558 433.676 357.35C434.754 361.274 433.028 365.565 430.186 368.476C427.344 371.388 423.54 373.146 419.735 374.588C408.368 378.894 396.145 380.926 383.997 380.528C382.966 378.716 383.996 376.303 385.674 375.065C387.351 373.828 389.488 373.449 391.525 373.011C400.194 371.146 408.495 367.585 415.819 362.587C417.465 361.464 419.251 359.448 418.195 357.759C417.803 357.131 417.106 356.774 416.438 356.455C404.936 350.964 392.086 348.324 379.351 348.835L390.629 346.797C380.693 340.869 370.248 335.796 359.446 331.652C356.088 330.363 352 329.255 349.145 331.444C342.178 336.787 335.21 342.13 328.243 347.473C337.227 347.631 346.168 349.841 354.192 353.886C352.356 357.899 348.23 360.762 343.829 361.076C345.911 358.94 347.994 356.805 350.076 354.669C335.245 345.475 314.093 355.084 299.241 345.924C292.616 341.838 288.225 334.475 281.043 331.475C274.193 328.613 266.389 330.358 259.181 332.14C254.454 333.309 249.488 334.607 246 338.005C246.097 334.586 249.346 332.112 252.541 330.894C255.736 329.676 259.283 329.113 261.972 327.001C264.701 324.858 266.095 321.472 268.246 318.751C270.398 316.03 274.211 313.884 277.251 315.555C276.314 308.329 282.453 302.436 286.614 296.456C291.354 289.645 293.887 281.323 293.746 273.026C288.466 275.832 286.091 283.068 288.682 288.459C289.832 290.853 287.541 293.874 284.892 294.063C282.243 294.251 279.812 292.302 278.615 289.931C277.417 287.56 277.199 284.831 277.02 282.181C276.767 278.436 276.557 274.613 277.521 270.986C279.348 264.113 285.08 259.002 291.028 255.107C296.976 251.212 303.507 248.026 308.494 242.957C313.995 237.366 317.254 229.628 317.413 221.785C319.707 232.236 314.296 243.896 304.834 248.888C296.468 253.302 287.962 258.306 282.722 266.183C277.481 274.06 276.552 285.592 283.058 292.46C281.991 286.879 283.483 280.861 287.032 276.424C289.906 272.833 293.924 270.369 297.895 268.048C307.103 262.667 316.529 257.657 326.14 253.035C325.488 250.556 327.542 247.742 330.101 247.608C327.209 243.002 329.954 235.947 335.198 234.509C333.652 236.483 332.06 238.551 331.547 241.006C331.034 243.46 331.958 246.411 334.265 247.391C329.724 247.421 328.94 254.659 324.769 256.457C316.183 260.159 307.864 264.48 299.896 269.374C299.308 269.736 298.701 270.136 298.133 270.578C298.242 270.577 298.357 270.608 298.477 270.675C299.085 274.842 299.163 279.085 298.709 283.271C298.645 283.854 298.387 284.604 297.796 284.576C297.195 284.548 297.019 283.754 297.018 283.156L297 272.542C296.999 272.143 297.107 271.675 297.292 271.296C296.186 272.342 295.388 273.59 295.455 275.076C295.806 282.896 293.52 290.812 289.054 297.24C293.986 292.945 298.917 288.651 303.849 284.356C305.435 282.975 308.831 282.317 308.789 284.42C301.236 289.444 293.561 294.578 287.839 301.617C282.117 308.656 278.543 318.023 280.532 326.875C278.324 326.05 278.13 323.1 277.607 320.8C277.085 318.501 274.286 316.097 272.716 317.855C268.996 322.022 265.276 326.189 261.555 330.356C269.79 325.258 281.447 326.588 288.323 333.41C297.434 342.45 309.853 351.054 322.162 347.422C333.282 344.141 339.783 331.982 350.653 327.945C340.717 303.895 338.619 276.677 344.753 251.388C346.474 244.292 348.843 237.123 348.071 229.862C346.874 218.61 338.421 209.424 335.608 198.464C334.406 201.636 331.294 203.995 327.916 204.293C331.784 199.336 335.653 194.378 339.522 189.421C345.441 181.835 346.772 170.917 342.805 162.15C338.838 153.383 329.732 147.169 320.122 146.721C321.333 147.894 322.545 149.067 323.756 150.24C321.548 151.008 319.341 151.776 317.133 152.545C316.718 151.057 316.304 149.57 315.889 148.083C317.54 146.748 319.19 145.414 320.841 144.08C317.688 144.794 314.535 145.507 311.382 146.22C314.095 143.302 318.049 141.577 322.033 141.577ZM158.639 16.4186C149.375 23.0655 141.766 31.7025 134.245 40.2599C132.356 42.4795 135.918 45.2416 138.761 45.9058C151.53 48.8887 164.792 49.7658 177.844 48.4907C174.357 53.4173 167.251 54.0143 161.268 53.1176C155.284 52.2209 149.137 50.3205 143.318 51.9752C155.215 57.1549 167.947 60.425 180.875 61.6211L176.515 64.173C185.28 68.8876 187.973 80.6113 185.807 90.2986C183.642 99.9858 177.812 108.376 173.115 117.128C164.674 132.856 159.688 150.413 158.607 168.215C170.587 163.873 174.675 149.19 175.8 136.538C176.925 123.886 177.438 109.649 186.807 101.035C179.686 117.082 177.136 135.113 179.528 152.496C169.546 161.561 159.564 170.625 149.582 179.689C142.27 186.328 145.911 198.258 150.063 207.204C150.568 208.292 151.13 209.445 152.165 210.056C154.731 211.571 157.874 208.516 158.141 205.557C158.409 202.597 157.124 199.691 157.174 196.72C157.225 193.748 159.741 190.353 162.576 191.278C159.501 188.568 163.237 183.751 166.833 181.777C176.384 176.535 187.169 173.542 198.065 173.11C201.35 172.98 202.822 169.074 203.867 165.968C204.911 162.862 207.746 159.279 210.733 160.647C205.33 141.719 216.263 122.017 216.004 102.34C222.636 120.909 205.256 142.595 213.943 160.303C210.562 162.462 207.181 164.622 203.799 166.782C206.635 167.934 209.05 170.086 210.513 172.766C193.957 174.326 177.698 178.972 162.828 186.392C165.942 188.43 164.931 194.188 161.307 195.05C155.934 217.515 158.432 241.769 168.273 262.678C169.905 253.895 176.049 246.068 184.212 242.375C175.731 249.077 170.749 259.441 168.737 270.038C166.726 280.635 167.424 291.549 168.594 302.271C169.866 313.921 171.686 325.511 174.047 336.991C175.655 344.809 177.518 352.875 175.853 360.681C174.188 368.487 167.802 375.959 159.792 375.952C165.115 379.069 171.516 380.314 177.624 379.423C183.397 378.581 185.874 371.462 185.469 365.663C185.064 359.863 183.038 353.934 184.752 348.377C185.605 345.611 187.329 343.193 188.375 340.494C190.252 335.654 189.839 330.287 189.934 325.1C190.146 313.449 193.108 301.856 198.512 291.521C199.447 293.359 199.109 295.761 197.702 297.271C220.55 278.85 234.199 249.615 233.619 220.337L231.679 223.449C233.42 193.344 235.162 163.24 236.904 133.136C237.334 125.69 237.762 118.171 236.535 110.813C233.052 89.9153 216.506 71.4174 218.946 50.3731C214.066 48.7188 209.185 47.0645 204.304 45.4101C211.011 45.9423 217.717 46.4745 224.423 47.0067C225.521 47.0938 226.778 47.1238 227.539 46.3305C228.318 45.5176 228.203 44.2234 227.964 43.125C224.95 29.2873 211.486 20.6531 199.19 13.5519C205.974 14.5706 212.36 18.0347 216.901 23.1581C212.756 12.8828 201.604 6.50481 190.508 5.85887C179.111 5.19536 167.904 9.77176 158.639 16.4186ZM407.043 370.216C402.035 374.266 395.176 374.82 388.833 375.934C387.744 376.125 386.431 376.558 386.254 377.65C387.41 378.367 388.863 378.339 390.221 378.261C401.362 377.618 412.392 375.099 422.708 370.842C422.128 369.509 420.209 369.68 418.811 370.076C417.765 370.372 416.718 370.668 415.672 370.965C414.48 371.302 413.176 371.635 412.034 371.153C410.892 370.672 410.24 368.979 411.173 368.163C409.601 367.949 408.277 369.218 407.043 370.216ZM195.868 306.806C193.799 313.808 192.866 321.253 194.143 328.44C196.012 338.951 202.364 348.022 208.052 357.068C209.797 359.845 211.563 363.008 210.902 366.218C210.186 369.697 206.904 371.958 203.889 373.85C208.889 376.263 214.578 372.618 218.917 369.162C219.575 368.637 220.279 368.039 220.423 367.211C220.555 366.452 220.177 365.708 219.81 365.03C215.627 357.282 211.444 349.535 207.262 341.788L207.166 336.34C207.111 333.173 207.051 329.972 206.276 326.9C204.425 319.566 198.756 313.8 195.868 306.806ZM81.4556 369.941C81.813 370.265 82.0022 370.752 82.3715 371.062C82.9393 371.54 83.7556 371.481 84.486 371.578C85.2164 371.675 86.06 372.158 85.9966 372.904C83.9238 374.037 81.1729 373.714 79.4083 372.131C78.872 371.579 78.8626 370.588 79.3883 370.026C79.914 369.464 80.8868 369.423 81.4556 369.941ZM381.007 365.589C381.482 365.669 382.094 365.945 381.988 366.415C381.935 366.65 381.712 366.799 381.505 366.919C379.047 368.35 376.255 369.202 373.418 369.386C372.39 369.452 371.516 370.11 370.725 370.788L370.545 370.944C369.707 371.674 368.801 372.448 367.698 372.567C366.595 372.685 365.328 371.775 365.539 370.683C365.725 369.716 366.832 369.282 367.777 369.015C369.486 368.532 371.196 368.049 372.906 367.566C373.135 367.264 373.219 366.857 373.128 366.488L360.818 366.669C360.349 366.676 359.851 366.675 359.453 366.425C359.056 366.176 358.839 365.58 359.144 365.223C366.395 364.253 373.792 364.377 381.007 365.589ZM351.268 320.446C349.975 322.227 350.761 324.888 352.391 326.366C354.021 327.844 356.245 328.434 358.377 328.976C360.403 329.491 362.428 330.006 364.453 330.52C365.003 330.66 365.637 330.785 366.096 330.453C366.376 330.249 366.43 329.813 366.3 329.519L366.28 329.482L367.387 330.126C383.892 339.656 401.286 347.645 419.27 353.954C422.09 354.943 422.73 358.965 421.239 361.555C419.749 364.146 416.92 365.614 414.232 366.921C413.172 367.437 412.273 369.288 413.449 369.378C416.831 367.743 420.734 367.206 424.431 367.867C427.809 368.471 431.113 365.46 431.596 362.062C432.08 358.664 430.284 355.256 427.73 352.963C425.177 350.671 421.945 349.301 418.754 348.04C398.94 340.213 377.857 334.897 359.967 323.329C357.808 321.932 354.569 320.598 353.04 322.666L351.268 320.446ZM243.407 352.92C247.298 358.118 252.846 362.066 259.044 364.046C260.934 364.65 262.956 365.077 264.896 364.662C264.86 363.715 263.652 363.376 262.715 363.213C259.185 362.6 255.877 360.779 253.478 358.127C252.273 356.795 251.275 355.248 249.831 354.177C248.022 352.837 245.596 352.385 243.407 352.92ZM114.607 345.585C116.366 345.684 115.328 349.042 116.817 349.986C117.411 350.363 118.179 350.184 118.871 350.059C122.973 349.321 127.429 351.207 129.762 354.67C130.348 355.539 129.778 356.81 128.861 357.313C127.943 357.817 126.83 357.758 125.791 357.637C124.169 357.448 123.04 359.194 122.478 360.731C121.916 362.269 121.255 364.098 119.672 364.503C118.459 364.813 117.224 364.104 116.271 363.289C115.319 362.474 114.437 361.496 113.249 361.102C112.06 360.707 110.445 361.233 110.244 362.472C110.026 363.815 108.188 363.994 106.841 363.83L102.03 363.247C101.739 361.919 103.623 361.25 104.967 361.427C106.312 361.604 108.027 361.874 108.715 360.702C109.071 360.096 108.984 359.28 109.424 358.731C110.149 357.824 111.591 358.314 112.607 358.874C113.695 359.474 114.782 360.073 115.87 360.673C116.866 361.222 117.942 361.789 119.073 361.674C120.204 361.56 121.295 360.426 120.917 359.351C120.435 357.978 121.892 356.658 123.301 356.308C124.711 355.958 126.271 356.081 127.522 355.342C125.059 352.198 120.174 351.297 116.757 353.357C115.73 353.976 114.777 352.377 114.784 351.177C114.792 349.976 114.734 348.354 113.56 348.117C112.666 347.937 111.951 348.797 111.308 349.445C110.666 350.094 109.444 350.539 108.961 349.764C109.571 347.295 112.074 345.442 114.607 345.585ZM155.444 353.008C157.119 353.63 158.938 354.375 159.74 355.913C160.542 357.452 159.389 359.856 157.621 359.551C157.341 359.168 157.329 358.623 157.591 358.23C157.807 357.906 158.199 357.65 158.21 357.266C158.221 356.874 157.829 356.596 157.479 356.391C155.653 355.318 153.826 354.245 152 353.172C152.761 352.238 154.291 352.58 155.444 353.008ZM218.19 356.821L218.199 357.168C218.227 357.826 218.662 358.449 219.27 358.704C219.706 357.948 219.065 356.831 218.19 356.821ZM93 351.775C91.5555 353.285 89.613 354.212 87.6195 354.341C88.1555 354.964 88.5944 355.688 88.9115 356.471C87.5689 356.977 86.3079 355.58 85.4561 354.336C85.1257 353.853 84.796 353.158 85.1574 352.703C85.3002 352.523 85.5177 352.441 85.7259 352.371C88.0695 351.582 90.5753 351.377 93 351.775ZM227.48 264.299C223.835 270.934 219.525 277.205 214.635 282.989C213.734 284.055 214.341 285.661 214.959 286.911C224.553 306.308 228.974 327.961 238.987 347.145C239.85 348.798 240.917 350.57 242.7 351.131C244.483 351.692 246.86 350.02 246.163 348.291C235.34 321.454 225.686 293.167 227.48 264.299ZM92.5945 330.714C93.0618 331.04 93.0589 331.755 93.0256 332.348C92.813 336.139 93.523 339.984 95.0676 343.406C95.5869 344.557 97.2677 344.185 98.1516 343.323C99.0355 342.461 99.7626 341.233 100.944 341.02C102.194 340.795 103.379 341.913 103.772 343.198C104.166 344.482 103.97 345.877 103.77 347.211C103.649 348.023 103.476 348.925 102.843 349.395C102.21 349.865 101.051 349.367 101.23 348.567L101.936 345.409C102.027 345 102.116 344.552 101.945 344.173C101.654 343.528 100.776 343.466 100.174 343.783C99.5716 344.1 99.1226 344.671 98.5565 345.056C96.7435 346.289 94.1878 345.224 92.9194 343.374C91.6509 341.523 91.3374 339.142 91.0627 336.869C89.9482 340.674 89.5854 344.727 90.0047 348.688C89.4408 349.274 88.6474 348.261 88.4768 347.441C87.3798 342.174 88.1958 336.482 90.7184 331.804C91.1181 331.063 91.9229 330.247 92.5945 330.714ZM126 339.544C123.333 340.615 121.096 342.687 119.849 345.241C119.571 345.809 118.593 345.603 118.335 345.027C118.076 344.451 118.314 343.782 118.609 343.223C119.376 341.77 120.54 340.522 121.947 339.647C120.298 339.525 118.649 339.402 117 339.28C119.355 336.904 123.792 337.035 126 339.544ZM105.324 335.597C106.524 335.777 107.439 336.713 108.201 337.635C107.436 337.709 106.702 338.046 106.155 338.572C107.104 339.565 108.052 340.559 109 341.553C106.405 341.807 103.754 340.046 103.049 337.598C102.72 336.458 104.123 335.418 105.324 335.597ZM386.961 239.612C394.973 264.418 399.329 290.368 399.852 316.396C404.883 311.953 411.4 309.173 418.13 308.6C414.593 309.842 412.325 313.285 411.069 316.773C409.813 320.261 409.3 323.99 407.858 327.407C418.894 324.027 430.973 324.042 442 327.448C432.545 330.146 423.617 334.627 415.841 340.577C414.489 339.825 415.667 337.802 416.911 336.885C421.929 333.185 427.502 330.215 433.392 328.104C424.023 326.262 414.158 326.932 405.134 330.025C406.79 324.42 408.205 318.747 409.376 313.025C402.921 316.026 397.022 320.188 392.059 325.245C390.769 324.089 392.644 322.28 393.974 321.171C397.551 318.189 397.699 312.891 397.463 308.28C396.55 290.428 394.167 272.549 388.704 255.505C389.216 274.717 385.27 294.032 377.253 311.55C376.881 312.364 375.605 313.176 375.324 312.327C375.573 311.357 375.822 310.387 376.071 309.417C373.722 306.43 372.609 302.524 373.038 298.767C368.842 303.728 365.194 309.14 362.179 314.875C360.851 315.219 360.734 312.993 361.385 311.8C364.936 305.296 369.426 299.291 374.679 294.024C375.251 298.626 375.824 303.228 376.396 307.83C385.639 286.824 388.796 263.254 385.402 240.602C385.521 239.927 386.289 239.439 386.961 239.612ZM120.536 329.799C121.079 330.124 121.198 331.036 120.607 331.276C119.649 331.665 119.806 332.959 120.038 333.914C120.27 334.869 120.092 336.25 119.05 336.307C118.145 336.357 117.69 335.292 117.64 334.442C117.589 333.593 117.564 332.56 116.77 332.149C114.275 333.625 111.779 335.101 109.283 336.577C108.563 335.778 109.347 334.581 110.168 333.874C112.55 331.825 115.507 330.37 118.658 329.699C119.286 329.566 119.993 329.474 120.536 329.799ZM344.943 325.824C345.162 326.189 344.688 326.87 344.539 326.438L344.535 326.396C344.279 326.385 344.042 326.089 344 325.726C344.317 325.564 344.724 325.458 344.943 325.824ZM4.18887 290.995C4.0152 293.719 4.01942 296.454 4.20149 299.177C4.3716 301.721 4.84704 304.534 6.86739 306.1C7.5099 306.598 8.65455 306.809 8.97355 306.063C9.05148 305.88 9.05593 305.676 9.05741 305.478C9.08918 301.213 8.28002 296.943 6.68948 292.983C6.24989 291.888 5.30632 290.606 4.18887 290.995ZM159.728 246.562L158.325 258.236C157.882 261.93 157.437 265.652 157.717 269.361C158.086 274.258 159.702 278.965 161.351 283.592C162.387 286.501 163.531 289.535 165.872 291.556C164.5 283.957 164.831 276.056 166.836 268.597C167.014 267.937 167.205 267.269 167.194 266.587C167.176 265.534 166.68 264.557 166.221 263.609C163.483 257.957 161.667 251.862 160.866 245.637C160.515 245.098 159.805 245.924 159.728 246.562ZM285.31 283.937C284.869 286.108 285.602 288.48 287.189 290.025C287.245 287.864 286.574 285.69 285.31 283.937ZM317 133.842C315.361 141.05 307.408 144.161 301.159 147.815C296.716 150.413 292.711 153.802 289.375 157.788C288.582 158.735 287.126 158.023 285.996 157.568C282.463 156.148 278.181 158.401 276.577 161.943C274.972 165.484 275.726 169.826 277.802 173.096C279.879 176.367 283.105 178.695 286.496 180.447C287.56 179.931 287.234 178.167 286.306 177.423C285.378 176.678 284.134 176.487 283.147 175.827C282.23 175.213 281.602 174.239 281.054 173.263C279.415 170.348 278.241 166.759 279.505 163.652C280.769 160.545 285.443 159.075 287.378 161.791C290.322 165.923 283.654 172.381 286.703 176.432C286.412 174.445 287.533 172.327 289.312 171.503C289.194 175.219 289.077 178.935 288.959 182.651C289.85 181.706 291.089 181.117 292.365 181.03C292.491 184.441 292.88 187.841 293.526 191.188C294.303 190.682 294.665 189.59 294.351 188.7L316.438 208.948C311.628 206.704 307.137 203.732 303.154 200.159C307.129 207.693 303.251 216.802 300.886 225.024C298.883 231.985 298.013 239.29 298.324 246.543C296.899 245.024 294.423 246.146 292.79 247.424C287.539 251.53 283.083 256.712 279.759 262.577C279.353 261.872 279.39 260.989 279.538 260.183C280.475 255.071 284.994 251.648 288.98 248.455C292.965 245.261 297.089 240.971 296.675 235.787C296.116 228.781 299.344 222.138 301.315 215.409C303.286 208.68 303.635 200.39 298.612 195.634C296.872 193.986 294.653 192.953 292.9 191.32C291.146 189.686 289.886 187.035 290.883 184.827C290.034 185.336 289.184 185.845 288.335 186.354C288.098 182.938 284.217 181.418 281.298 179.782C276.29 176.975 272.628 171.306 273.03 165.447C273.432 159.588 278.542 154.192 284.233 154.522C286.677 154.664 289.815 155.437 291.029 153.248C295.513 145.158 307.143 144.226 312.424 136.665C313.575 135.018 315.303 132.81 317 133.842ZM153.081 213.973L152.946 214.255C153.378 214.357 153.81 214.46 154.242 214.562C154.808 213.96 154.682 212.77 153.896 212.513C153.11 212.256 152.36 213.568 153.081 213.973ZM298.214 184.577C298.297 185.799 298.689 187.001 299.347 188.055C299.343 187.3 300.609 187.098 301.158 187.647C301.706 188.195 301.709 189.039 301.678 189.793C304.217 189.528 306.027 191.918 307.929 193.531C312.363 197.29 318.977 197.293 324.921 196.973C326.562 196.885 328.747 197.172 329 198.709C326.209 199.655 323.167 199.652 320.206 199.506C315.576 199.276 310.883 198.7 306.66 196.892C302.436 195.083 298.699 191.893 297.221 187.736C296.798 186.547 296.906 184.784 298.214 184.577ZM301.526 179.578C303.207 184.017 309.299 186.335 313.711 184.214C314.5 183.835 315.249 183.334 316.117 183.178C317.577 182.915 318.996 183.67 320.357 184.239C322.275 185.041 324.419 185.514 326.469 185.109C328.519 184.704 330.431 183.281 330.917 181.334C331.042 180.834 331.087 180.282 331.434 179.889C331.782 179.496 332.591 179.452 332.761 179.94C333.745 182.752 331.555 185.908 328.663 186.979C325.77 188.049 322.486 187.48 319.588 186.423C318.615 186.068 317.616 185.652 316.576 185.727C315.531 185.802 314.605 186.361 313.648 186.772C309.212 188.678 303.447 187.084 300.761 183.207C300.318 182.568 299.942 181.833 300.007 181.068C300.072 180.304 300.725 179.545 301.526 179.578ZM347.163 176.031C346.903 177.282 347.071 178.62 347.634 179.767C348.51 179.362 349.038 178.317 348.845 177.371L348.852 177.367C348.838 176.546 347.965 175.856 347.163 176.031ZM316.17 173.592C316.913 173.696 317.513 174.327 318.04 174.949C319.107 176.207 320.097 177.554 321 178.977C318.373 179.715 315.608 179.773 312.96 179.147C312.143 178.954 311.808 177.688 312.109 176.779C312.411 175.869 313.123 175.251 313.801 174.684C314.509 174.093 315.307 173.472 316.17 173.592ZM314.669 177.398L314.921 177.525L316.669 177.131C316.864 176.811 316.938 176.394 316.869 176.01C315.996 175.504 314.789 176.266 314.669 177.398ZM281.874 163.343C280.889 164.354 280.694 165.965 281.015 167.359C281.576 169.804 283.479 171.797 283.806 174.287C284.489 174.095 284.791 173.243 284.745 172.515C284.699 171.788 284.417 171.09 284.387 170.362C284.287 167.924 286.916 165.405 285.54 163.421C284.731 162.255 282.859 162.332 281.874 163.343ZM332.747 154.59C335.541 154.783 337.715 157.221 339.227 159.719C340.447 161.737 341.467 164.194 340.776 166.477C339.846 169.549 336.418 170.736 333.457 171.487L330.341 172.278C329.513 172.487 328.649 172.698 327.82 172.494C326.673 172.213 325.831 171.207 325.069 170.256C323.527 168.328 321.894 166.137 322.005 163.612C322.135 160.672 324.559 158.489 326.876 156.867C328.647 155.627 330.629 154.443 332.747 154.59ZM310.194 158.606C312.857 160.486 314.566 163.793 313.827 166.88C313.088 169.966 309.488 172.337 306.344 171.35C303.462 170.446 300.48 169.451 298.335 167.4C296.189 165.349 295.164 161.919 296.822 159.489C297.75 158.129 299.352 157.3 300.997 156.895C304.123 156.126 307.597 156.772 310.194 158.606ZM332.983 158.036C331.232 158.269 329.439 158.383 327.794 159.056C326.148 159.73 324.63 161.099 324.278 162.931C323.821 165.303 325.374 167.532 326.832 169.396C327.516 170.27 328.767 170.268 329.828 170.11C333.053 169.631 336.177 168.395 338.908 166.515C337.526 166.177 336.143 165.838 334.761 165.499C334.946 164.619 336.091 164.578 336.942 164.611C337.792 164.644 338.954 164.076 338.646 163.235C337.337 162.821 335.964 162.635 334.6 162.688C334.198 162.704 333.727 162.787 333.548 163.168C333.409 163.465 333.51 163.816 333.572 164.141C333.982 166.312 332.045 168.602 329.964 168.407C327.882 168.212 326.355 165.597 327.118 163.536C327.882 161.475 330.681 160.659 332.331 162.017C332.7 161.667 332.664 160.952 332.261 160.646C333.477 159.761 335.073 159.489 336.49 159.924C336.656 159.122 336.021 158.334 335.287 158.072C334.552 157.811 333.752 157.934 332.983 158.036ZM302.12 159.238C300.079 159.495 297.671 160.834 298.041 162.772C298.3 164.133 299.952 164.928 301.384 164.739C302.816 164.55 304.025 163.635 305.037 162.648L300.799 162.983C300.245 163.027 299.43 162.769 299.631 162.273C299.687 162.135 299.818 162.038 299.947 161.956C301.785 160.776 304.439 160.931 306.114 162.315C307.749 162.833 309.328 163.993 309.611 165.619C309.895 167.245 308.222 169.076 306.592 168.541C306.448 169.749 308.387 170.123 309.489 169.519C312.143 168.066 312.392 164.128 310.461 161.86C308.53 159.591 305.152 158.856 302.12 159.238ZM301.06 165.451C300.845 167.069 302.644 168.612 304.302 168.232C303.814 166.984 302.721 165.966 301.403 165.535L301.06 165.451ZM305.161 166.255L306.921 167.659L306.973 167.404C307.718 167.019 307.774 165.831 307.068 165.384C306.363 164.937 305.241 165.449 305.161 166.255ZM330.248 163.789C329.318 163.881 328.777 165.275 329.393 166.019L329.214 166.034C329.779 166.822 331.136 166.699 331.546 165.81C331.956 164.921 331.178 163.697 330.248 163.789ZM134.22 51.6802C133.072 53.1173 132.686 55.0026 132.418 56.8198C131.061 66.0227 131.851 75.5328 134.706 84.3886C135.221 85.9869 135.831 87.6111 136.979 88.8397C140.118 92.1982 145.546 91.2548 150.086 90.4841C154.311 89.7669 158.602 89.433 162.887 89.4879C164.874 89.5134 166.831 89.0615 168.766 88.6124C173.878 87.4253 178.991 86.2383 184.104 85.0512C184.168 78.2483 181.414 71.4613 176.623 66.614C175.903 65.8864 174.781 65.165 173.943 65.7541C174.865 66.6847 174.592 68.482 173.434 69.0979C172.055 68.5953 172.546 66.5591 172.16 65.1483C171.664 63.3333 169.56 62.5445 167.722 62.1158C158.286 59.9155 147.313 59.5405 141.043 52.1782C140.46 51.493 139.909 50.7396 139.118 50.3082C137.501 49.4264 135.368 50.2432 134.22 51.6802ZM202.045 23.6515C207.512 26.204 212.368 30.1785 216.058 35.1191C216.557 35.7866 217.058 36.5538 216.994 37.399C216.878 38.9348 215.116 39.5989 213.676 39.9048C211.127 40.4464 208.578 40.9879 206.028 41.5295C205.096 41.7275 203.629 41.301 204.01 40.3873C207.08 38.4201 210.763 37.5244 214.346 37.8737C214.632 37.2519 214.289 36.5209 213.91 35.9563C212.658 34.0916 210.942 32.6339 209.249 31.2017C206.499 28.8749 203.75 26.5481 201 24.2213C201.058 23.7417 201.638 23.4259 202.045 23.6515ZM181.961 16.0992C184.362 17.2071 185.231 20.079 185.667 22.6416C185.938 24.2335 186.142 25.8638 185.875 27.4563C185.408 30.2438 183.489 32.6779 181.055 34.1964C178.62 35.715 175.714 36.388 172.831 36.5424C166.154 36.9001 159.368 34.4803 154.492 30.0032C152.37 28.0544 152.656 24.4694 154.44 22.2193C156.224 19.9693 159.079 18.8063 161.886 18.0508C165.063 17.1953 168.337 16.7402 171.6 16.2872C173.84 15.9762 176.086 15.6648 178.347 15.5893C179.575 15.5483 180.849 15.5864 181.961 16.0992ZM155.325 25.1613C154.589 26.4427 155.801 27.9288 156.913 28.9169C159.091 30.8525 161.821 32.9331 164.664 32.1912C166.57 31.6937 168.617 29.9984 170.207 31.1409C170.073 31.7573 169.349 32.0543 168.711 32.1347C168.072 32.215 167.375 32.1948 166.853 32.5642C166.332 32.9336 166.255 33.9067 166.873 34.0838C168.89 34.6619 170.769 32.9631 172.204 31.4609C173.639 29.9587 175.698 28.375 177.623 29.1998C177.879 29.3093 178.144 29.5053 178.148 29.7782C178.152 30.1763 177.645 30.3467 177.248 30.4339C175.13 30.8985 173.236 32.2663 172.159 34.1095C174.979 33.7065 177.508 32.2466 179.955 30.8163C181.686 29.8047 183.586 28.5617 183.936 26.6193C181.518 27.3183 179.003 27.6971 176.482 27.7419C171.206 27.8356 166.076 31.0141 160.933 29.8615C159.632 29.57 158.736 28.4375 157.953 27.3803C158.765 26.6186 160.065 27.2465 161.125 27.6131C162.186 27.9797 163.889 27.4189 163.494 26.3884C162.249 25.87 161.004 25.3516 159.759 24.8332C158.258 24.2078 156.124 23.7689 155.325 25.1613ZM167.17 25.6581C166.801 25.7084 166.392 25.8058 166.196 26.1161C165.914 26.5649 166.298 27.1847 166.807 27.356C167.317 27.5272 167.874 27.3892 168.394 27.2505C169.678 26.908 170.961 26.5654 172.245 26.2228C170.637 25.6221 168.874 25.4259 167.17 25.6581ZM178.919 23.4511C176.951 24.1751 174.897 24.9553 173.516 26.5072C176.595 25.9838 179.73 25.7705 182.854 25.8719C183.96 25.3901 183.547 23.5651 182.437 23.0919C181.327 22.6186 180.053 23.0343 178.919 23.4511ZM180.495 19.1155C179.401 19.2024 178.426 19.7893 177.404 20.1801C174.5 21.2903 171.258 20.808 168.145 20.6438C165.411 20.4996 162.653 20.6165 159.968 21.1447C158.525 21.4287 156.837 22.1162 156.656 23.5456C159.116 22.4152 161.982 22.8186 164.692 23.0144C170.829 23.4576 177.055 22.6926 182.889 20.7784C182.866 19.7049 181.589 19.0286 180.495 19.1155ZM137.219 19.4643C136.492 19.7851 135.744 20.2299 135.454 20.9671C135.164 21.7044 135.637 22.7443 136.431 22.7223C138.839 21.0433 141.883 20.2932 144.8 20.6601C145.723 20.7763 146.667 20.0279 146.76 19.1049C143.688 18.0165 140.2 18.148 137.219 19.4643ZM169.003 6.86415L169.011 6.97218C168.103 6.64949 166.984 7.14793 166.62 8.03709C168.117 7.93305 169.598 7.61176 171.003 7.08651C170.998 6.26361 169.699 6.42026 169.003 6.86415ZM188.151 3.5669C187.541 3.84406 188.257 4.98192 188.774 4.55534L188.788 4.60278C189.25 4.23427 188.691 3.32421 188.151 3.5669Z" fill="#00160A"/>
</svg>
